{
    "asset" : {
        "generator" : "Khronos glTF Blender I/O v1.7.33",
        "version" : "2.0"
    },
    "scene" : 0,
    "scenes" : [
        {
            "name" : "Scene",
            "nodes" : [
                0,
                1
            ]
        }
    ],
    "nodes" : [
        {
            "name" : "Empty",
            "rotation" : [
                0.7071068286895752,
                0,
                0,
                0.7071068286895752
            ]
        },
        {
            "mesh" : 0,
            "name" : "froggy",
            "scale" : [
                0.5206823945045471,
                0.5206823945045471,
                0.5206823945045471
            ],
            "translation" : [
                -0.004477925132960081,
                1.0162519216537476,
                -0.006259649060666561
            ]
        }
    ],
    "materials" : [
        {
            "doubleSided" : true,
            "name" : "froggo_material",
            "pbrMetallicRoughness" : {
                "baseColorTexture" : {
                    "index" : 0
                },
                "metallicFactor" : 0,
                "roughnessFactor" : 0.5
            }
        }
    ],
    "meshes" : [
        {
            "name" : "Roundcube.002",
            "primitives" : [
                {
                    "attributes" : {
                        "POSITION" : 0,
                        "NORMAL" : 1,
                        "TEXCOORD_0" : 2
                    },
                    "indices" : 3,
                    "material" : 0
                }
            ]
        }
    ],
    "textures" : [
        {
            "sampler" : 0,
            "source" : 0
        }
    ],
    "images" : [
        {
            "mimeType" : "image/png",
            "name" : "frog_texture",
            "uri" : "frog_texture.png"
        }
    ],
    "accessors" : [
        {
            "bufferView" : 0,
            "componentType" : 5126,
            "count" : 619,
            "max" : [
                2.2642674446105957,
                4.977122783660889,
                1.9325785636901855
            ],
            "min" : [
                -2.247067451477051,
                -1.9120616912841797,
                -1.9085345268249512
            ],
            "type" : "VEC3"
        },
        {
            "bufferView" : 1,
            "componentType" : 5126,
            "count" : 619,
            "type" : "VEC3"
        },
        {
            "bufferView" : 2,
            "componentType" : 5126,
            "count" : 619,
            "type" : "VEC2"
        },
        {
            "bufferView" : 3,
            "componentType" : 5123,
            "count" : 3180,
            "type" : "SCALAR"
        }
    ],
    "bufferViews" : [
        {
            "buffer" : 0,
            "byteLength" : 7428,
            "byteOffset" : 0
        },
        {
            "buffer" : 0,
            "byteLength" : 7428,
            "byteOffset" : 7428
        },
        {
            "buffer" : 0,
            "byteLength" : 4952,
            "byteOffset" : 14856
        },
        {
            "buffer" : 0,
            "byteLength" : 6360,
            "byteOffset" : 19808
        }
    ],
    "samplers" : [
        {
            "magFilter" : 9728,
            "minFilter" : 9984
        }
    ],
    "buffers" : [
        {
            "byteLength" : 26168,
            "uri" : "froggy.bin"
        }
    ]
}
